#!OML:ASF G:\JayActor3\Patient Classification 1\Patient 1\Session 5\male.ASF
:FULLY-SPECIFIED
:DEGREES
1032
root 56.2396 14.5649 -7.13908 916.842 93.7311 903.187
lowerback 35.2745 -1.94476 1.46536
upperback 10.0064 -1.05036 -2.62641
thorax -6.83739 0.0218786 -3.21338
lowerneck 1.57568 -0.380857 0.806637
upperneck -20.1024 0.470699 2.5016
head -6.35588 0.209578 0.60904
rclavicle -5.96354e-015 -6.36111e-015
rhumerus -30.898 3.99399 -90.4209
rradius 43.2606
rwrist -1.26944
rhand -22.3292 -11.1061
rfingers 7.12502
rthumb 4.09091 -41.0466
lclavicle -5.96354e-015 -6.36111e-015
lhumerus -30.8716 2.23217 81.0271
lradius 39.7031
lwrist 25.1838
lhand -20.2005 13.3709
lfingers 7.12502
lthumb 6.14628 43.2618
rfemur -56.4492 -5.16633 17.9495
rtibia 98.9116
rfoot 14.1536 -2.08921
rtoes -11.6374
lfemur -67.5455 19.327 -34.3267
ltibia 78.9445
lfoot 6.73931 -3.05852
ltoes -33.3905
1033
root 56.3444 14.5623 -7.14206 918.171 93.816 904.505
lowerback 35.3004 -1.96839 1.42815
upperback 10.0096 -1.09261 -2.63968
thorax -6.84536 0.00235431 -3.19217
lowerneck 1.53443 -0.339793 0.815931
upperneck -20.011 0.507065 2.41945
head -6.31971 0.232394 0.579073
rclavicle -1.51076e-014 -6.75868e-015
rhumerus -30.902 4.03938 -90.4303
rradius 43.3109
rwrist -1.39571
rhand -22.2782 -11.1167
rfingers 7.12502
rthumb 4.14013 -41.0562
lclavicle -1.51076e-014 -6.75868e-015
lhumerus -30.8554 2.2035 81.0748
lradius 39.6901
lwrist 25.1735
lhand -20.2419 13.3685
lfingers 7.12502
lthumb 6.10631 43.2605
rfemur -57.771 -5.15527 17.9592
rtibia 98.9546
rfoot 13.114 -2.23777
rtoes -12.6701
lfemur -67.2231 19.4791 -34.3734
ltibia 79.1895
lfoot 6.42154 -2.9643
ltoes -33.6186
1034
root 56.4489 14.5603 -7.14436 919.54 93.9048 905.864
lowerback 35.3344 -1.99281 1.38038
upperback 10.0083 -1.13988 -2.65535
thorax -6.86115 -0.0197084 -3.16603
lowerneck 1.4902 -0.302217 0.839792
upperneck -19.9309 0.539407 2.33073
head -6.28658 0.252781 0.544876
rclavicle 7.95139e-015 1.59028e-014
rhumerus -30.9119 4.05738 -90.4318
rradius 43.3467
rwrist -1.53112
rhand -22.2051 -11.1472
rfingers 7.12502
rthumb 4.21074 -41.0854
lclavicle 7.95139e-015 1.59028e-014
lhumerus -30.8586 2.17041 81.1205
lradius 39.6825
lwrist 25.14
lhand -20.2548 13.3652
lfingers 7.12502
lthumb 6.09379 43.2575
rfemur -59.0842 -5.12834 17.9651
rtibia 98.8487
rfoot 12.2087 -2.45435
rtoes -13.6958
lfemur -66.9065 19.6406 -34.4258
ltibia 79.4229
lfoot 6.16499 -2.89467
ltoes -33.8493
1035
root 56.5534 14.5593 -7.14603 920.927 93.9915 907.247
lowerback 35.3771 -2.02142 1.32836
upperback 10.0086 -1.19344 -2.67453
thorax -6.87876 -0.0443916 -3.139
lowerneck 1.44516 -0.268341 0.864621
upperneck -19.8687 0.570558 2.25587
head -6.25903 0.271691 0.515065
rclavicle 7.95139e-015 4.77083e-015
rhumerus -30.9223 4.0461 -90.428
rradius 43.3568
rwrist -1.62952
rhand -22.1513 -11.1747
rfingers 7.12502
rthumb 4.26266 -41.1118
lclavicle 7.95139e-015 4.77083e-015
lhumerus -30.8748 2.12689 81.1637
lradius 39.6805
lwrist 25.0898
lhand -20.2476 13.3735
lfingers 7.12502
lthumb 6.1008 43.2657
rfemur -60.3583 -5.09732 17.9674
rtibia 98.5877
rfoot 11.3617 -2.68664
rtoes -14.6719
lfemur -66.5931 19.8149 -34.4835
ltibia 79.6496
lfoot 5.98114 -2.83936
ltoes -34.0444
1036
root 56.6583 14.5594 -7.14664 922.143 94.0721 908.471
lowerback 35.427 -2.05451 1.27738
upperback 10.0134 -1.25124 -2.69408
thorax -6.89408 -0.070607 -3.11131
lowerneck 1.40652 -0.239722 0.888032
upperneck -19.8317 0.600528 2.20592
head -6.24069 0.288444 0.493522
rclavicle 2.50469e-014 2.62396e-014
rhumerus -30.9302 4.01205 -90.4244
rradius 43.3388
rwrist -1.68441
rhand -22.1214 -11.2021
rfingers 7.12502
rthumb 4.29156 -41.1386
lclavicle 2.50469e-014 2.62396e-014
lhumerus -30.8987 2.07839 81.2011
lradius 39.6811
lwrist 25.026
lhand -20.2306 13.3935
lfingers 7.12502
lthumb 6.11723 43.2852
rfemur -61.5732 -5.04692 17.9806
rtibia 98.1653
rfoot 10.5033 -2.95861
rtoes -15.5053
lfemur -66.29 20.012 -34.5321
ltibia 79.878
lfoot 5.87832 -2.79092
ltoes -34.178
1037
root 56.7633 14.5602 -7.14586 923.293 94.1522 909.634
lowerback 35.48 -2.0842 1.22028
upperback 10.0215 -1.30627 -2.71364
thorax -6.90649 -0.0952266 -3.08134
lowerneck 1.37544 -0.21664 0.923466
upperneck -19.8181 0.62552 2.15745
head -6.23105 0.301888 0.470727
rclavicle -2.38542e-014 -1.74931e-014
rhumerus -30.9378 3.95472 -90.4173
rradius 43.2971
rwrist -1.69926
rhand -22.1006 -11.2398
rfingers 7.12502
rthumb 4.31161 -41.176
lclavicle -2.38542e-014 -1.74931e-014
lhumerus -30.921 2.02088 81.2369
lradius 39.6779
lwrist 24.9538
lhand -20.2203 13.4178
lfingers 7.12502
lthumb 6.12714 43.3092
rfemur -62.7343 -4.97733 17.9961
rtibia 97.5808
rfoot 9.6187 -3.23773
rtoes -16.0611
lfemur -66.0073 20.2353 -34.5834
ltibia 80.109
lfoot 5.85261 -2.74297
ltoes -34.2405
